<mxfile host="app.diagrams.net" agent="Mozilla/5.0 (Windows NT 10.0; Win64; x64) AppleWebKit/537.36 (KHTML, like Gecko) Chrome/130.0.0.0 Safari/537.36" version="24.8.3">
  <diagram name="Page-1" id="iOwwo5hq8AZW4B84ZknS">
    <mxGraphModel dx="1134" dy="1689" grid="1" gridSize="10" guides="1" tooltips="1" connect="1" arrows="1" fold="1" page="1" pageScale="1" pageWidth="850" pageHeight="1100" math="0" shadow="0">
      <root>
        <mxCell id="0" />
        <mxCell id="1" parent="0" />
        <mxCell id="VZQWGF-B04HibEcFjDgy-7" style="edgeStyle=orthogonalEdgeStyle;rounded=0;orthogonalLoop=1;jettySize=auto;html=1;entryX=0;entryY=0.5;entryDx=0;entryDy=0;" edge="1" parent="1" source="VZQWGF-B04HibEcFjDgy-1" target="VZQWGF-B04HibEcFjDgy-6">
          <mxGeometry relative="1" as="geometry" />
        </mxCell>
        <mxCell id="VZQWGF-B04HibEcFjDgy-1" value="USER" style="rounded=0;whiteSpace=wrap;html=1;" vertex="1" parent="1">
          <mxGeometry x="75" y="60" width="120" height="60" as="geometry" />
        </mxCell>
        <mxCell id="VZQWGF-B04HibEcFjDgy-10" style="edgeStyle=orthogonalEdgeStyle;rounded=0;orthogonalLoop=1;jettySize=auto;html=1;entryX=0;entryY=0.5;entryDx=0;entryDy=0;" edge="1" parent="1" source="VZQWGF-B04HibEcFjDgy-2" target="VZQWGF-B04HibEcFjDgy-9">
          <mxGeometry relative="1" as="geometry" />
        </mxCell>
        <mxCell id="VZQWGF-B04HibEcFjDgy-13" style="edgeStyle=orthogonalEdgeStyle;rounded=0;orthogonalLoop=1;jettySize=auto;html=1;" edge="1" parent="1" source="VZQWGF-B04HibEcFjDgy-2" target="VZQWGF-B04HibEcFjDgy-12">
          <mxGeometry relative="1" as="geometry" />
        </mxCell>
        <mxCell id="VZQWGF-B04HibEcFjDgy-2" value="EVENT" style="rounded=0;whiteSpace=wrap;html=1;" vertex="1" parent="1">
          <mxGeometry x="280" y="230" width="120" height="60" as="geometry" />
        </mxCell>
        <mxCell id="VZQWGF-B04HibEcFjDgy-16" style="edgeStyle=orthogonalEdgeStyle;rounded=0;orthogonalLoop=1;jettySize=auto;html=1;" edge="1" parent="1" source="VZQWGF-B04HibEcFjDgy-3" target="VZQWGF-B04HibEcFjDgy-15">
          <mxGeometry relative="1" as="geometry" />
        </mxCell>
        <mxCell id="VZQWGF-B04HibEcFjDgy-3" value="TICKET" style="rounded=0;whiteSpace=wrap;html=1;" vertex="1" parent="1">
          <mxGeometry x="710" y="230" width="120" height="60" as="geometry" />
        </mxCell>
        <mxCell id="VZQWGF-B04HibEcFjDgy-4" value="ATTENDEE" style="rounded=0;whiteSpace=wrap;html=1;" vertex="1" parent="1">
          <mxGeometry x="250" y="460" width="120" height="60" as="geometry" />
        </mxCell>
        <mxCell id="VZQWGF-B04HibEcFjDgy-5" value="PAYMENT" style="rounded=0;whiteSpace=wrap;html=1;" vertex="1" parent="1">
          <mxGeometry x="590" y="480" width="120" height="60" as="geometry" />
        </mxCell>
        <mxCell id="VZQWGF-B04HibEcFjDgy-29" style="edgeStyle=orthogonalEdgeStyle;rounded=0;orthogonalLoop=1;jettySize=auto;html=1;" edge="1" parent="1" source="VZQWGF-B04HibEcFjDgy-6" target="VZQWGF-B04HibEcFjDgy-2">
          <mxGeometry relative="1" as="geometry" />
        </mxCell>
        <mxCell id="VZQWGF-B04HibEcFjDgy-6" value="ORGANIZES" style="rhombus;whiteSpace=wrap;html=1;" vertex="1" parent="1">
          <mxGeometry x="300" y="50" width="80" height="80" as="geometry" />
        </mxCell>
        <mxCell id="VZQWGF-B04HibEcFjDgy-11" style="edgeStyle=orthogonalEdgeStyle;rounded=0;orthogonalLoop=1;jettySize=auto;html=1;exitX=1;exitY=0.5;exitDx=0;exitDy=0;" edge="1" parent="1" source="VZQWGF-B04HibEcFjDgy-9" target="VZQWGF-B04HibEcFjDgy-3">
          <mxGeometry relative="1" as="geometry" />
        </mxCell>
        <mxCell id="VZQWGF-B04HibEcFjDgy-9" value="iNCLUDES" style="rhombus;whiteSpace=wrap;html=1;" vertex="1" parent="1">
          <mxGeometry x="530" y="220" width="80" height="80" as="geometry" />
        </mxCell>
        <mxCell id="VZQWGF-B04HibEcFjDgy-14" style="edgeStyle=orthogonalEdgeStyle;rounded=0;orthogonalLoop=1;jettySize=auto;html=1;" edge="1" parent="1" source="VZQWGF-B04HibEcFjDgy-12" target="VZQWGF-B04HibEcFjDgy-4">
          <mxGeometry relative="1" as="geometry" />
        </mxCell>
        <mxCell id="VZQWGF-B04HibEcFjDgy-12" value="REGISTERS" style="rhombus;whiteSpace=wrap;html=1;" vertex="1" parent="1">
          <mxGeometry x="280" y="360" width="80" height="60" as="geometry" />
        </mxCell>
        <mxCell id="VZQWGF-B04HibEcFjDgy-17" style="edgeStyle=orthogonalEdgeStyle;rounded=0;orthogonalLoop=1;jettySize=auto;html=1;" edge="1" parent="1" source="VZQWGF-B04HibEcFjDgy-15" target="VZQWGF-B04HibEcFjDgy-5">
          <mxGeometry relative="1" as="geometry" />
        </mxCell>
        <mxCell id="VZQWGF-B04HibEcFjDgy-15" value="PAYS FOR" style="rhombus;whiteSpace=wrap;html=1;" vertex="1" parent="1">
          <mxGeometry x="730" y="350" width="80" height="80" as="geometry" />
        </mxCell>
        <mxCell id="VZQWGF-B04HibEcFjDgy-20" style="edgeStyle=orthogonalEdgeStyle;rounded=0;orthogonalLoop=1;jettySize=auto;html=1;strokeColor=none;" edge="1" parent="1" source="VZQWGF-B04HibEcFjDgy-19" target="VZQWGF-B04HibEcFjDgy-1">
          <mxGeometry relative="1" as="geometry" />
        </mxCell>
        <mxCell id="VZQWGF-B04HibEcFjDgy-22" style="rounded=1;orthogonalLoop=1;jettySize=auto;html=1;entryX=0;entryY=0;entryDx=0;entryDy=0;endArrow=baseDash;endFill=0;curved=0;" edge="1" parent="1" source="VZQWGF-B04HibEcFjDgy-19" target="VZQWGF-B04HibEcFjDgy-1">
          <mxGeometry relative="1" as="geometry" />
        </mxCell>
        <mxCell id="VZQWGF-B04HibEcFjDgy-19" value="USERID" style="ellipse;whiteSpace=wrap;html=1;fontStyle=4" vertex="1" parent="1">
          <mxGeometry y="-10" width="80" height="40" as="geometry" />
        </mxCell>
        <mxCell id="VZQWGF-B04HibEcFjDgy-23" value="NAME" style="ellipse;whiteSpace=wrap;html=1;" vertex="1" parent="1">
          <mxGeometry x="75" y="-5" width="70" height="30" as="geometry" />
        </mxCell>
        <mxCell id="VZQWGF-B04HibEcFjDgy-24" style="edgeStyle=orthogonalEdgeStyle;rounded=1;orthogonalLoop=1;jettySize=auto;html=1;entryX=0.094;entryY=0.067;entryDx=0;entryDy=0;entryPerimeter=0;fontStyle=0;endArrow=baseDash;endFill=0;curved=0;" edge="1" parent="1" source="VZQWGF-B04HibEcFjDgy-23" target="VZQWGF-B04HibEcFjDgy-1">
          <mxGeometry relative="1" as="geometry" />
        </mxCell>
        <mxCell id="VZQWGF-B04HibEcFjDgy-26" style="edgeStyle=orthogonalEdgeStyle;rounded=0;orthogonalLoop=1;jettySize=auto;html=1;entryX=0.914;entryY=0.056;entryDx=0;entryDy=0;entryPerimeter=0;" edge="1" parent="1" source="VZQWGF-B04HibEcFjDgy-25" target="VZQWGF-B04HibEcFjDgy-1">
          <mxGeometry relative="1" as="geometry">
            <Array as="points">
              <mxPoint x="188" y="45" />
              <mxPoint x="190" y="45" />
              <mxPoint x="190" y="63" />
            </Array>
          </mxGeometry>
        </mxCell>
        <mxCell id="VZQWGF-B04HibEcFjDgy-25" value="EMAIL" style="ellipse;whiteSpace=wrap;html=1;" vertex="1" parent="1">
          <mxGeometry x="145" y="-5" width="85" height="30" as="geometry" />
        </mxCell>
        <mxCell id="VZQWGF-B04HibEcFjDgy-28" style="edgeStyle=orthogonalEdgeStyle;rounded=0;orthogonalLoop=1;jettySize=auto;html=1;exitX=0.5;exitY=1;exitDx=0;exitDy=0;" edge="1" parent="1" source="VZQWGF-B04HibEcFjDgy-2" target="VZQWGF-B04HibEcFjDgy-2">
          <mxGeometry relative="1" as="geometry" />
        </mxCell>
        <mxCell id="VZQWGF-B04HibEcFjDgy-30" value="TITLE" style="ellipse;whiteSpace=wrap;html=1;direction=west;" vertex="1" parent="1">
          <mxGeometry x="220" y="160" width="80" height="40" as="geometry" />
        </mxCell>
        <mxCell id="VZQWGF-B04HibEcFjDgy-34" style="edgeStyle=orthogonalEdgeStyle;rounded=0;orthogonalLoop=1;jettySize=auto;html=1;entryX=0;entryY=0.75;entryDx=0;entryDy=0;" edge="1" parent="1" source="VZQWGF-B04HibEcFjDgy-31" target="VZQWGF-B04HibEcFjDgy-2">
          <mxGeometry relative="1" as="geometry">
            <Array as="points">
              <mxPoint x="80" y="230" />
              <mxPoint x="200" y="230" />
              <mxPoint x="200" y="275" />
            </Array>
          </mxGeometry>
        </mxCell>
        <mxCell id="VZQWGF-B04HibEcFjDgy-31" value="&lt;u&gt;EVENT ID&lt;/u&gt;" style="ellipse;whiteSpace=wrap;html=1;direction=west;" vertex="1" parent="1">
          <mxGeometry x="40" y="160" width="80" height="40" as="geometry" />
        </mxCell>
        <mxCell id="VZQWGF-B04HibEcFjDgy-32" value="NAME" style="ellipse;whiteSpace=wrap;html=1;direction=west;" vertex="1" parent="1">
          <mxGeometry x="130" y="160" width="80" height="40" as="geometry" />
        </mxCell>
        <mxCell id="VZQWGF-B04HibEcFjDgy-37" style="edgeStyle=orthogonalEdgeStyle;rounded=0;orthogonalLoop=1;jettySize=auto;html=1;entryX=0;entryY=1;entryDx=0;entryDy=0;" edge="1" parent="1" source="VZQWGF-B04HibEcFjDgy-33" target="VZQWGF-B04HibEcFjDgy-2">
          <mxGeometry relative="1" as="geometry">
            <Array as="points">
              <mxPoint x="200" y="260" />
              <mxPoint x="200" y="290" />
            </Array>
          </mxGeometry>
        </mxCell>
        <mxCell id="VZQWGF-B04HibEcFjDgy-33" value="DESCRIPTION" style="ellipse;whiteSpace=wrap;html=1;" vertex="1" parent="1">
          <mxGeometry x="40" y="240" width="80" height="40" as="geometry" />
        </mxCell>
        <mxCell id="VZQWGF-B04HibEcFjDgy-35" style="edgeStyle=orthogonalEdgeStyle;rounded=0;orthogonalLoop=1;jettySize=auto;html=1;entryX=-0.022;entryY=0.644;entryDx=0;entryDy=0;entryPerimeter=0;" edge="1" parent="1" source="VZQWGF-B04HibEcFjDgy-32" target="VZQWGF-B04HibEcFjDgy-2">
          <mxGeometry relative="1" as="geometry">
            <Array as="points">
              <mxPoint x="170" y="220" />
              <mxPoint x="277" y="220" />
            </Array>
          </mxGeometry>
        </mxCell>
        <mxCell id="VZQWGF-B04HibEcFjDgy-36" style="edgeStyle=orthogonalEdgeStyle;rounded=0;orthogonalLoop=1;jettySize=auto;html=1;entryX=0.106;entryY=0.044;entryDx=0;entryDy=0;entryPerimeter=0;" edge="1" parent="1" source="VZQWGF-B04HibEcFjDgy-30" target="VZQWGF-B04HibEcFjDgy-2">
          <mxGeometry relative="1" as="geometry" />
        </mxCell>
        <mxCell id="VZQWGF-B04HibEcFjDgy-39" value="DATE" style="ellipse;whiteSpace=wrap;html=1;" vertex="1" parent="1">
          <mxGeometry x="40" y="290" width="80" height="50" as="geometry" />
        </mxCell>
        <mxCell id="VZQWGF-B04HibEcFjDgy-40" style="edgeStyle=orthogonalEdgeStyle;rounded=0;orthogonalLoop=1;jettySize=auto;html=1;entryX=0.094;entryY=1;entryDx=0;entryDy=0;entryPerimeter=0;" edge="1" parent="1" source="VZQWGF-B04HibEcFjDgy-39" target="VZQWGF-B04HibEcFjDgy-2">
          <mxGeometry relative="1" as="geometry" />
        </mxCell>
        <mxCell id="VZQWGF-B04HibEcFjDgy-43" style="edgeStyle=orthogonalEdgeStyle;rounded=0;orthogonalLoop=1;jettySize=auto;html=1;entryX=0.25;entryY=1;entryDx=0;entryDy=0;" edge="1" parent="1" source="VZQWGF-B04HibEcFjDgy-42" target="VZQWGF-B04HibEcFjDgy-2">
          <mxGeometry relative="1" as="geometry">
            <Array as="points">
              <mxPoint x="310" y="350" />
            </Array>
          </mxGeometry>
        </mxCell>
        <mxCell id="VZQWGF-B04HibEcFjDgy-42" value="&lt;i&gt;ORGANIZER ID&lt;/i&gt;" style="ellipse;whiteSpace=wrap;html=1;" vertex="1" parent="1">
          <mxGeometry x="60" y="350" width="90" height="40" as="geometry" />
        </mxCell>
        <mxCell id="VZQWGF-B04HibEcFjDgy-49" style="edgeStyle=orthogonalEdgeStyle;rounded=0;orthogonalLoop=1;jettySize=auto;html=1;entryX=0;entryY=0.25;entryDx=0;entryDy=0;" edge="1" parent="1" source="VZQWGF-B04HibEcFjDgy-44" target="VZQWGF-B04HibEcFjDgy-3">
          <mxGeometry relative="1" as="geometry">
            <Array as="points">
              <mxPoint x="668" y="90" />
              <mxPoint x="668" y="245" />
            </Array>
          </mxGeometry>
        </mxCell>
        <mxCell id="VZQWGF-B04HibEcFjDgy-44" value="&lt;u&gt;TICKET ID&lt;/u&gt;" style="ellipse;whiteSpace=wrap;html=1;" vertex="1" parent="1">
          <mxGeometry x="515" y="40" width="110" height="50" as="geometry" />
        </mxCell>
        <mxCell id="VZQWGF-B04HibEcFjDgy-50" style="edgeStyle=orthogonalEdgeStyle;rounded=0;orthogonalLoop=1;jettySize=auto;html=1;" edge="1" parent="1" source="VZQWGF-B04HibEcFjDgy-45" target="VZQWGF-B04HibEcFjDgy-3">
          <mxGeometry relative="1" as="geometry" />
        </mxCell>
        <mxCell id="VZQWGF-B04HibEcFjDgy-45" value="&lt;i&gt;EVENT ID&lt;/i&gt;" style="ellipse;whiteSpace=wrap;html=1;" vertex="1" parent="1">
          <mxGeometry x="640" y="37.5" width="110" height="52.5" as="geometry" />
        </mxCell>
        <mxCell id="VZQWGF-B04HibEcFjDgy-48" style="edgeStyle=orthogonalEdgeStyle;rounded=0;orthogonalLoop=1;jettySize=auto;html=1;entryX=0;entryY=0.25;entryDx=0;entryDy=0;" edge="1" parent="1" source="VZQWGF-B04HibEcFjDgy-46" target="VZQWGF-B04HibEcFjDgy-3">
          <mxGeometry relative="1" as="geometry" />
        </mxCell>
        <mxCell id="VZQWGF-B04HibEcFjDgy-46" value="PRICE" style="ellipse;whiteSpace=wrap;html=1;" vertex="1" parent="1">
          <mxGeometry x="540" y="120" width="110" height="50" as="geometry" />
        </mxCell>
        <mxCell id="VZQWGF-B04HibEcFjDgy-47" value="TYPE" style="ellipse;whiteSpace=wrap;html=1;" vertex="1" parent="1">
          <mxGeometry x="760" y="42.5" width="100" height="40" as="geometry" />
        </mxCell>
        <mxCell id="VZQWGF-B04HibEcFjDgy-51" style="edgeStyle=orthogonalEdgeStyle;rounded=0;orthogonalLoop=1;jettySize=auto;html=1;entryX=1.028;entryY=0.133;entryDx=0;entryDy=0;entryPerimeter=0;" edge="1" parent="1" source="VZQWGF-B04HibEcFjDgy-47" target="VZQWGF-B04HibEcFjDgy-3">
          <mxGeometry relative="1" as="geometry" />
        </mxCell>
        <mxCell id="VZQWGF-B04HibEcFjDgy-59" style="edgeStyle=orthogonalEdgeStyle;rounded=0;orthogonalLoop=1;jettySize=auto;html=1;" edge="1" parent="1" source="VZQWGF-B04HibEcFjDgy-52" target="VZQWGF-B04HibEcFjDgy-5">
          <mxGeometry relative="1" as="geometry">
            <mxPoint x="620" y="550" as="targetPoint" />
          </mxGeometry>
        </mxCell>
        <mxCell id="VZQWGF-B04HibEcFjDgy-52" value="DATE" style="ellipse;whiteSpace=wrap;html=1;" vertex="1" parent="1">
          <mxGeometry x="490" y="610" width="110" height="50" as="geometry" />
        </mxCell>
        <mxCell id="VZQWGF-B04HibEcFjDgy-61" style="edgeStyle=orthogonalEdgeStyle;rounded=0;orthogonalLoop=1;jettySize=auto;html=1;entryX=1;entryY=0.5;entryDx=0;entryDy=0;" edge="1" parent="1" source="VZQWGF-B04HibEcFjDgy-53" target="VZQWGF-B04HibEcFjDgy-5">
          <mxGeometry relative="1" as="geometry">
            <Array as="points">
              <mxPoint x="770" y="540" />
              <mxPoint x="730" y="540" />
              <mxPoint x="730" y="510" />
            </Array>
          </mxGeometry>
        </mxCell>
        <mxCell id="VZQWGF-B04HibEcFjDgy-53" value="PaymentMethod" style="ellipse;whiteSpace=wrap;html=1;" vertex="1" parent="1">
          <mxGeometry x="740" y="610" width="110" height="50" as="geometry" />
        </mxCell>
        <mxCell id="VZQWGF-B04HibEcFjDgy-60" style="edgeStyle=orthogonalEdgeStyle;rounded=0;orthogonalLoop=1;jettySize=auto;html=1;" edge="1" parent="1" source="VZQWGF-B04HibEcFjDgy-54" target="VZQWGF-B04HibEcFjDgy-5">
          <mxGeometry relative="1" as="geometry" />
        </mxCell>
        <mxCell id="VZQWGF-B04HibEcFjDgy-54" value="&lt;i&gt;TICKET ID&lt;/i&gt;" style="ellipse;whiteSpace=wrap;html=1;" vertex="1" parent="1">
          <mxGeometry x="625" y="610" width="110" height="50" as="geometry" />
        </mxCell>
        <mxCell id="VZQWGF-B04HibEcFjDgy-58" style="edgeStyle=orthogonalEdgeStyle;rounded=0;orthogonalLoop=1;jettySize=auto;html=1;" edge="1" parent="1" source="VZQWGF-B04HibEcFjDgy-55" target="VZQWGF-B04HibEcFjDgy-5">
          <mxGeometry relative="1" as="geometry">
            <Array as="points">
              <mxPoint x="425" y="590" />
              <mxPoint x="650" y="590" />
            </Array>
          </mxGeometry>
        </mxCell>
        <mxCell id="VZQWGF-B04HibEcFjDgy-55" value="&lt;u&gt;AMOUNT&lt;/u&gt;" style="ellipse;whiteSpace=wrap;html=1;" vertex="1" parent="1">
          <mxGeometry x="370" y="610" width="110" height="50" as="geometry" />
        </mxCell>
        <mxCell id="VZQWGF-B04HibEcFjDgy-56" value="&lt;u&gt;PAYMENT ID&lt;/u&gt;" style="ellipse;whiteSpace=wrap;html=1;" vertex="1" parent="1">
          <mxGeometry x="430" y="540" width="110" height="50" as="geometry" />
        </mxCell>
        <mxCell id="VZQWGF-B04HibEcFjDgy-57" style="edgeStyle=orthogonalEdgeStyle;rounded=0;orthogonalLoop=1;jettySize=auto;html=1;entryX=0.139;entryY=0.956;entryDx=0;entryDy=0;entryPerimeter=0;" edge="1" parent="1" source="VZQWGF-B04HibEcFjDgy-56" target="VZQWGF-B04HibEcFjDgy-5">
          <mxGeometry relative="1" as="geometry" />
        </mxCell>
        <mxCell id="VZQWGF-B04HibEcFjDgy-69" style="edgeStyle=orthogonalEdgeStyle;rounded=0;orthogonalLoop=1;jettySize=auto;html=1;" edge="1" parent="1" source="VZQWGF-B04HibEcFjDgy-62" target="VZQWGF-B04HibEcFjDgy-4">
          <mxGeometry relative="1" as="geometry" />
        </mxCell>
        <mxCell id="VZQWGF-B04HibEcFjDgy-62" value="EMAIL" style="ellipse;whiteSpace=wrap;html=1;" vertex="1" parent="1">
          <mxGeometry x="140" y="560" width="110" height="50" as="geometry" />
        </mxCell>
        <mxCell id="VZQWGF-B04HibEcFjDgy-63" value="NAME" style="ellipse;whiteSpace=wrap;html=1;" vertex="1" parent="1">
          <mxGeometry x="10" y="560" width="110" height="50" as="geometry" />
        </mxCell>
        <mxCell id="VZQWGF-B04HibEcFjDgy-66" style="edgeStyle=orthogonalEdgeStyle;rounded=0;orthogonalLoop=1;jettySize=auto;html=1;" edge="1" parent="1" source="VZQWGF-B04HibEcFjDgy-64" target="VZQWGF-B04HibEcFjDgy-4">
          <mxGeometry relative="1" as="geometry" />
        </mxCell>
        <mxCell id="VZQWGF-B04HibEcFjDgy-64" value="&lt;u&gt;ATTENDEE ID&lt;/u&gt;" style="ellipse;whiteSpace=wrap;html=1;" vertex="1" parent="1">
          <mxGeometry x="10" y="430" width="110" height="50" as="geometry" />
        </mxCell>
        <mxCell id="VZQWGF-B04HibEcFjDgy-67" style="edgeStyle=orthogonalEdgeStyle;rounded=0;orthogonalLoop=1;jettySize=auto;html=1;entryX=0;entryY=0.75;entryDx=0;entryDy=0;" edge="1" parent="1" source="VZQWGF-B04HibEcFjDgy-65" target="VZQWGF-B04HibEcFjDgy-4">
          <mxGeometry relative="1" as="geometry" />
        </mxCell>
        <mxCell id="VZQWGF-B04HibEcFjDgy-65" value="&lt;i&gt;EVENT ID&lt;/i&gt;" style="ellipse;whiteSpace=wrap;html=1;" vertex="1" parent="1">
          <mxGeometry x="10" y="485" width="110" height="50" as="geometry" />
        </mxCell>
        <mxCell id="VZQWGF-B04HibEcFjDgy-68" style="edgeStyle=orthogonalEdgeStyle;rounded=0;orthogonalLoop=1;jettySize=auto;html=1;entryX=-0.006;entryY=0.878;entryDx=0;entryDy=0;entryPerimeter=0;" edge="1" parent="1" source="VZQWGF-B04HibEcFjDgy-63" target="VZQWGF-B04HibEcFjDgy-4">
          <mxGeometry relative="1" as="geometry">
            <Array as="points">
              <mxPoint x="65" y="540" />
              <mxPoint x="185" y="540" />
              <mxPoint x="185" y="513" />
            </Array>
          </mxGeometry>
        </mxCell>
      </root>
    </mxGraphModel>
  </diagram>
</mxfile>
